<?xml version="1.0" encoding="utf-8"?>
<!-- Generator: Adobe Illustrator 17.0.0, SVG Export Plug-In . SVG Version: 6.00 Build 0)  -->
<!DOCTYPE svg PUBLIC "-//W3C//DTD SVG 1.1//EN" "http://www.w3.org/Graphics/SVG/1.1/DTD/svg11.dtd">
<svg version="1.1" id="Layer_1" xmlns="http://www.w3.org/2000/svg" xmlns:xlink="http://www.w3.org/1999/xlink" x="0px" y="0px"
	 width="315px" height="340px" viewBox="0 0 315 340" enable-background="new 0 0 315 340" xml:space="preserve">
<g opacity="0.4">
	<defs>
		<filter id="Adobe_OpacityMaskFilter" filterUnits="userSpaceOnUse" x="109.111" y="243.218" width="155.614" height="18.574">
			<feColorMatrix  type="matrix" values="1 0 0 0 0  0 1 0 0 0  0 0 1 0 0  0 0 0 1 0"/>
		</filter>
	</defs>
	<mask maskUnits="userSpaceOnUse" x="109.111" y="243.218" width="155.614" height="18.574" id="SVGID_1_">
		<g filter="url(#Adobe_OpacityMaskFilter)">
			
				<image overflow="visible" enable-background="new    " width="160" height="23" xlink:href="63EDCA3AAA8D570C.jpg"  transform="matrix(-1 0 0 1 266.9389 241)">
			</image>
		</g>
	</mask>
	<g mask="url(#SVGID_1_)">
		<ellipse cx="186.918" cy="252.505" rx="77.807" ry="9.287"/>
	</g>
</g>
<path fill="#35514A" d="M277.655,239.402c-3.927-24.699-47.149-36.487-47.149-36.487
	C250.743,239.914,277.659,239.402,277.655,239.402z"/>
<path fill="#54B89E" d="M267.867,237.715c4.978,1.412,8.144,1.352,8.144,1.352c-3.927-24.699-47.149-36.487-47.149-36.487
	c0.613,1.118,1.231,2.199,1.852,3.249l-1.032-2.948C229.682,202.881,260.238,217.47,267.867,237.715z"/>
<path fill="#54B89E" d="M265.845,294.356c-42.571-18.629-43.535-101.87-43.535-101.87
	C279.372,246.194,265.845,294.356,265.845,294.356z"/>
<path fill="#256754" d="M267.384,275.964c0.211,9.609-1.378,15.275-1.378,15.275c-42.571-18.626-43.535-101.87-43.535-101.87
	c1.724,1.622,3.381,3.238,4.977,4.849c-1.566-1.08-3.162-2.161-4.815-3.234C222.633,190.984,234.561,252.764,267.384,275.964z"/>
<path fill="#35514A" d="M224.256,282.538c-21.886-21.521-2.876-73.117-2.876-73.117
	C243.947,256.002,224.256,282.537,224.256,282.538z"/>
<path fill="#54B89E" d="M229.545,271.555c-2.135,5.979-4.45,9.1-4.45,9.1c-21.886-21.521-2.876-73.117-2.876-73.117
	c0.682,1.404,1.322,2.794,1.928,4.164c-0.712-1.039-1.442-2.082-2.21-3.132C221.937,208.57,214.746,249.503,229.545,271.555z"/>
<path fill="#35514A" d="M190.876,127.641c-1.962,10.666,7.579,23.418,7.579,23.418l-20.636,2.963
	c-18.603,4.729-27.202,33.678-27.202,33.678c-3.148-18.803,7.891-37.823,15.282-54.446c7.718-17.356,0-22.522,0-22.522
	S190.876,127.641,190.876,127.641z"/>
<ellipse fill="#256754" cx="198.014" cy="185.961" rx="40.764" ry="40.229"/>
<path fill="#35514A" d="M173.609,205.569c0,5.068,0.96,9.91,2.692,14.375c6.377,4.077,13.971,6.453,22.134,6.453
	c22.515,0,40.764-18.012,40.764-40.229c0-5.068-0.96-9.91-2.692-14.375c-6.377-4.077-13.971-6.453-22.134-6.453
	C191.862,165.34,173.609,183.352,173.609,205.569z"/>
<path fill="#54B89E" d="M151.656,195.935c7.417,31.498,45.12,30.41,45.12,30.41c0.011-12.876,0.847-26.073-0.953-38.851
	c-1.886-13.392-7.91-24.959-17.899-34.085c-0.621-0.565-14.341-11.679-15.109-10.565C162.8,142.863,145.236,168.699,151.656,195.935
	z"/>
<path fill="#35514A" d="M190.668,127.64c-0.347,1.867-0.418,3.938-0.249,5.828c0.249,2.786,1.254,5.512,2.5,7.997
	c0.448,0.9,0.96,1.766,1.544,2.583c0.184,0.256,1.208,1.747,1.487,1.732c-4.153,0.245-8.091,1.465-12.022,2.805
	c-3.848,1.314-7.537,3.049-11.069,5.06c-6.055,3.449-10.998,8.317-14.571,14.3c-3.648,6.111-5.794,12.922-7.876,19.68
	c-0.677-2.391-0.786-5.094-0.666-7.56c0.459-9.322,3.279-18.129,6.811-26.698c2.805-6.811,6.145-13.385,9.134-20.113
	c7.718-17.356,0-22.522,0-22.522S192.634,116.979,190.668,127.64z"/>
<path fill="#256754" d="M186.388,95.65l-26.382,12.627c27.365,38.309,35.945,37.503,35.945,37.503
	c-9.284-7.612,10.644-35.048,10.644-35.048L186.388,95.65z"/>
<path fill="#256754" d="M169.361,72.48L87.785,87.6c-19.461,23.577,5.983,77.74,5.983,77.74
	c25.068-55.854,75.594-56.407,75.594-56.407S169.362,72.48,169.361,72.48z"/>
<path fill="#54B89E" d="M142.033,49.099c-13.585-1.642-29.198,0.369-29.198,0.369l41.558,25.692l16.841-21.611
	C171.234,53.549,155.62,50.745,142.033,49.099z"/>
<path fill="#35514A" d="M59.221,127.622c5.572,22.044,16.178,38.414,36.396,44.743c-0.448-1.37-0.858-2.767-1.216-4.19
	c-8.535-33.761,17.869-68.049,51.63-76.584c11.717-2.963,23.494-2.428,34.239,0.934c-10.207-31.239-43.027-49.661-75.368-41.487
	C71.141,59.573,50.689,93.861,59.221,127.622z"/>
<circle fill="#256754" cx="190.879" cy="79.596" r="36.487"/>
<path fill="#54B89E" d="M155.477,72.758c-0.708,2.835-1.088,5.802-1.088,8.859c0,20.151,16.336,36.487,36.487,36.487
	s36.487-16.337,36.487-36.487c0-5.899-1.412-11.468-3.897-16.4c-3.957,15.866-18.302,27.624-35.395,27.624
	C173.82,92.841,161.49,84.667,155.477,72.758z"/>
<path fill="#35514A" d="M177.819,85.281c0,13.599,7.447,25.452,18.482,31.728c17.963-2.278,31.852-17.602,31.852-36.182
	c0-13.599-7.447-25.455-18.482-31.728C191.708,51.381,177.819,66.704,177.819,85.281z"/>
</svg>
