<?xml version="1.0" encoding="utf-8"?>
<!-- Generator: Adobe Illustrator 17.0.0, SVG Export Plug-In . SVG Version: 6.00 Build 0)  -->
<!DOCTYPE svg PUBLIC "-//W3C//DTD SVG 1.1//EN" "http://www.w3.org/Graphics/SVG/1.1/DTD/svg11.dtd">
<svg version="1.1" id="Layer_1" xmlns="http://www.w3.org/2000/svg" xmlns:xlink="http://www.w3.org/1999/xlink" x="0px" y="0px"
	 width="197px" height="105px" viewBox="0 0 197 105" enable-background="new 0 0 197 105" xml:space="preserve">
<g opacity="0.4">
	<defs>
		<filter id="Adobe_OpacityMaskFilter" filterUnits="userSpaceOnUse" x="-462.786" y="-72.781" width="155.614" height="18.573">
			<feFlood  style="flood-color:white;flood-opacity:1" result="back"/>
			<feBlend  in="SourceGraphic" in2="back" mode="normal"/>
		</filter>
	</defs>
	<mask maskUnits="userSpaceOnUse" x="-462.786" y="-72.781" width="155.614" height="18.573" id="SVGID_1_">
		<g filter="url(#Adobe_OpacityMaskFilter)">
			<image overflow="visible" width="160" height="23" xlink:href="310EC673778D5FC1.jpg"  transform="matrix(1 0 0 1 -465 -75)">
			</image>
		</g>
	</mask>
	<g mask="url(#SVGID_1_)">
		<ellipse cx="-384.979" cy="-63.495" rx="77.807" ry="9.287"/>
	</g>
</g>
<g opacity="0.3">
	<defs>
		<filter id="Adobe_OpacityMaskFilter_1_" filterUnits="userSpaceOnUse" x="7.793" y="79.966" width="96.496" height="11.517">
			<feFlood  style="flood-color:white;flood-opacity:1" result="back"/>
			<feBlend  in="SourceGraphic" in2="back" mode="normal"/>
		</filter>
	</defs>
	<mask maskUnits="userSpaceOnUse" x="7.793" y="79.966" width="96.496" height="11.517" id="SVGID_2_">
		<g filter="url(#Adobe_OpacityMaskFilter_1_)">
			<image overflow="visible" width="102" height="17" xlink:href="310EC673778D5FC3.jpg"  transform="matrix(1 0 0 1 5 77)">
			</image>
		</g>
	</mask>
	<g mask="url(#SVGID_2_)">
		<ellipse cx="56.041" cy="85.724" rx="48.248" ry="5.759"/>
	</g>
</g>
<g opacity="0.3">
	<defs>
		<filter id="Adobe_OpacityMaskFilter_2_" filterUnits="userSpaceOnUse" x="89.793" y="75.114" width="78.496" height="9.369">
			<feFlood  style="flood-color:white;flood-opacity:1" result="back"/>
			<feBlend  in="SourceGraphic" in2="back" mode="normal"/>
		</filter>
	</defs>
	<mask maskUnits="userSpaceOnUse" x="89.793" y="75.114" width="78.496" height="9.369" id="SVGID_3_">
		<g filter="url(#Adobe_OpacityMaskFilter_2_)">
			<image overflow="visible" width="84" height="14" xlink:href="310EC673778D5FC6.jpg"  transform="matrix(1 0 0 1 87 73)">
			</image>
		</g>
	</mask>
	<g mask="url(#SVGID_3_)">
		<ellipse cx="129.041" cy="79.798" rx="39.248" ry="4.684"/>
	</g>
</g>
<g opacity="0.4">
	<defs>
		<filter id="Adobe_OpacityMaskFilter_3_" filterUnits="userSpaceOnUse" x="106.793" y="83.966" width="46.226" height="5.517">
			<feFlood  style="flood-color:white;flood-opacity:1" result="back"/>
			<feBlend  in="SourceGraphic" in2="back" mode="normal"/>
		</filter>
	</defs>
	<mask maskUnits="userSpaceOnUse" x="106.793" y="83.966" width="46.226" height="5.517" id="SVGID_4_">
		<g filter="url(#Adobe_OpacityMaskFilter_3_)">
			<image overflow="visible" width="52" height="11" xlink:href="310EC673778D5FC7.jpg"  transform="matrix(1 0 0 1 104 81)">
			</image>
		</g>
	</mask>
	<g mask="url(#SVGID_4_)">
		<ellipse cx="129.906" cy="86.724" rx="23.113" ry="2.759"/>
	</g>
</g>
<path fill="#35514A" d="M-428.567-113.085c0,0-43.222,11.788-47.149,36.487C-475.72-76.598-448.804-76.086-428.567-113.085z"/>
<path fill="#54B89E" d="M-427.743-113.119l-1.032,2.948c0.621-1.05,1.239-2.131,1.852-3.249c0,0-43.222,11.788-47.149,36.487
	c0,0,3.166,0.06,8.144-1.352C-458.299-98.53-427.743-113.119-427.743-113.119z"/>
<path fill="#54B89E" d="M-420.371-123.514c0,0-0.964,83.241-43.535,101.87C-463.905-21.644-477.433-69.806-420.371-123.514z"/>
<path fill="#256754" d="M-420.694-125.016c-1.653,1.073-3.249,2.154-4.815,3.234c1.596-1.611,3.253-3.227,4.977-4.849
	c0,0-0.964,83.244-43.535,101.87c0,0-1.589-5.666-1.378-15.275C-432.622-63.236-420.694-125.016-420.694-125.016z"/>
<path fill="#54B89E" d="M132.912,4.448c0,0-15.794,30.644-35.012,29.648C97.9,34.096,101.822,13.753,132.912,4.448z"/>
<path fill="#256754" d="M132.576,4.801c0,0-14.94,29.108-34.158,28.11c0,0,0.462-2.393,2.322-5.912
	C117.197,24.496,131.637,5.083,132.576,4.801z"/>
<path fill="#35514A" d="M-419.441-106.579c0,0,19.01,51.596-2.876,73.117C-422.317-33.463-442.008-59.998-419.441-106.579z"/>
<path fill="#54B89E" d="M-419.998-107.43c-0.768,1.05-1.498,2.093-2.21,3.132c0.606-1.37,1.246-2.76,1.928-4.164
	c0,0,19.01,51.596-2.876,73.117c0,0-2.315-3.121-4.45-9.1C-412.807-66.497-419.998-107.43-419.998-107.43z"/>
<path fill="#35514A" d="M112.262,75.318c0,0,24.92-2.938,32.137,9.067C144.399,84.385,130.527,90.295,112.262,75.318z"/>
<path fill="#54B89E" d="M111.825,75.475c0.384,0.453,0.769,0.888,1.154,1.314c-0.544-0.415-1.092-0.847-1.642-1.299
	c0,0,24.92-2.938,32.137,9.067c0,0-1.632,0.695-4.512,1.005C130.754,76.645,111.825,75.475,111.825,75.475z"/>
<path fill="#35514A" d="M101.042,56.737c0,0-48.892,16.34-68.02-5.771C33.021,50.966,58.587,32.944,101.042,56.737z"/>
<path fill="#54B89E" d="M100.75,56.75c-0.946-0.788-46.81,15.589-65.939-6.522c0,0,3.007-2.119,8.67-3.947
	C63.405,61.539,100.75,56.75,100.75,56.75z"/>
<path fill="#35514A" d="M-363.96-205.268c0,0-7.718,5.166,0,22.522c7.391,16.623,18.43,35.643,15.282,54.446
	c0,0-8.599-28.949-27.202-33.678l-20.636-2.963c0,0,9.541-12.752,7.579-23.418C-388.937-188.359-363.96-205.268-363.96-205.268z"/>
<ellipse fill="#256754" cx="-396.075" cy="-130.039" rx="40.764" ry="40.229"/>
<path fill="#35514A" d="M-412.434-150.66c-8.163,0-15.757,2.376-22.135,6.453c-1.732,4.465-2.692,9.307-2.692,14.375
	c0,22.217,18.249,40.229,40.764,40.229c8.163,0,15.757-2.376,22.134-6.453c1.732-4.465,2.692-9.307,2.692-14.375
	C-371.67-132.648-389.923-150.66-412.434-150.66z"/>
<path fill="#54B89E" d="M-360.876-173.156c-0.768-1.114-14.488,10-15.109,10.565c-9.989,9.126-16.013,20.693-17.899,34.085
	c-1.8,12.778-0.964,25.975-0.953,38.851c0,0,37.703,1.088,45.12-30.41C-343.297-147.301-360.861-173.137-360.876-173.156z"/>
<path fill="#35514A" d="M-363.752-205.268c0,0-7.718,5.166,0,22.522c2.989,6.728,6.329,13.302,9.134,20.113
	c3.532,8.569,6.352,17.376,6.811,26.698c0.12,2.466,0.011,5.169-0.666,7.56c-2.082-6.758-4.228-13.569-7.876-19.68
	c-3.573-5.983-8.516-10.851-14.571-14.3c-3.532-2.011-7.221-3.746-11.069-5.06c-3.931-1.34-7.869-2.56-12.022-2.805
	c0.279,0.015,1.303-1.476,1.487-1.732c0.584-0.817,1.096-1.683,1.544-2.583c1.246-2.485,2.251-5.211,2.5-7.997
	c0.169-1.89,0.098-3.961-0.248-5.828C-390.695-199.021-363.752-205.268-363.752-205.268z"/>
<path fill="#256754" d="M-404.656-205.268c0,0,19.928,27.436,10.644,35.048c0,0,8.58,0.806,35.945-37.503l-26.381-12.628
	C-384.449-220.35-404.656-205.268-404.656-205.268z"/>
<path fill="#256754" d="M-367.423-207.067c0,0,50.526,0.553,75.594,56.407c0,0,25.444-54.163,5.983-77.74l-81.577-15.12
	C-367.423-243.52-367.423-207.067-367.423-207.067z"/>
<path fill="#54B89E" d="M-369.295-262.451l16.841,21.611l41.558-25.692c0,0-15.613-2.011-29.198-0.369
	C-353.681-265.255-369.295-262.451-369.295-262.451z"/>
<path fill="#35514A" d="M-302.963-264.962c-32.341-8.174-65.161,10.248-75.368,41.487c10.745-3.362,22.522-3.897,34.239-0.934
	c33.761,8.535,60.165,42.823,51.63,76.584c-0.358,1.423-0.768,2.82-1.216,4.19c20.218-6.329,30.824-22.699,36.396-44.743
	C-248.75-222.139-269.202-256.427-302.963-264.962z"/>
<circle fill="#256754" cx="-388.94" cy="-236.404" r="36.487"/>
<path fill="#54B89E" d="M-386.132-223.159c-17.093,0-31.438-11.758-35.395-27.624c-2.485,4.932-3.897,10.501-3.897,16.4
	c0,20.15,16.336,36.487,36.487,36.487c20.15,0,36.487-16.336,36.487-36.487c0-3.057-0.38-6.024-1.088-8.859
	C-359.551-231.333-371.881-223.159-386.132-223.159z"/>
<path fill="#35514A" d="M-407.732-266.901c-11.035,6.273-18.482,18.129-18.482,31.728c0,18.58,13.889,33.904,31.852,36.182
	c11.035-6.276,18.482-18.129,18.482-31.728C-375.88-249.296-389.769-264.619-407.732-266.901z"/>
<text transform="matrix(1 0 0 1 -204 -81)" font-family="'SerifGothicStd-Bold'" font-size="48">We’re sorry...</text>
<text transform="matrix(1 0 0 1 -177.0625 -32)"><tspan x="0" y="0" font-family="'SerifGothicStd'" font-size="21">The page you are </tspan><tspan x="-30.323" y="25.2" font-family="'SerifGothicStd'" font-size="21">looking for does not exist</tspan></text>
</svg>
