<?xml version="1.0" encoding="utf-8"?>
<!-- Generator: Adobe Illustrator 17.0.0, SVG Export Plug-In . SVG Version: 6.00 Build 0)  -->
<!DOCTYPE svg PUBLIC "-//W3C//DTD SVG 1.1//EN" "http://www.w3.org/Graphics/SVG/1.1/DTD/svg11.dtd">
<svg version="1.1" id="Layer_1" xmlns="http://www.w3.org/2000/svg" xmlns:xlink="http://www.w3.org/1999/xlink" x="0px" y="0px"
	 width="72.401px" height="75.448px" viewBox="0 0 72.401 75.448" enable-background="new 0 0 72.401 75.448" xml:space="preserve">
<g>
	
		<image display="none" overflow="visible" enable-background="new    " width="2478" height="3506" xlink:href="../../../../../../2.jpeg"  transform="matrix(0.0358 0 0 0.0358 -13.8117 -28.6315)">
	</image>
	<path fill="#35514A" d="M14.724,47.865c0,0-11.48,3.131-12.523,9.691C2.2,57.556,9.349,57.692,14.724,47.865z"/>
	<path fill="#54B89E" d="M14.943,47.856c-0.089,0.267-0.181,0.527-0.274,0.783c0.165-0.279,0.329-0.566,0.492-0.863
		c0,0-11.48,3.131-12.523,9.691c0,0,0.841,0.016,2.163-0.359C6.827,51.731,14.943,47.856,14.943,47.856z"/>
	<path fill="#54B89E" d="M16.901,45.095c0,0-0.256,22.109-11.563,27.057C5.338,72.152,1.745,59.36,16.901,45.095z"/>
	<path fill="#256754" d="M16.815,44.696c-0.439,0.285-0.863,0.572-1.279,0.859c0.424-0.428,0.864-0.857,1.322-1.288
		c0,0-0.256,22.11-11.563,27.057c0,0-0.422-1.505-0.366-4.057C13.647,61.105,16.815,44.696,16.815,44.696z"/>
	<path fill="#35514A" d="M17.148,49.593c0,0,5.049,13.704-0.764,19.42C16.384,69.013,11.154,61.965,17.148,49.593z"/>
	<path fill="#54B89E" d="M17,49.367c-0.204,0.279-0.398,0.556-0.587,0.832c0.161-0.364,0.331-0.733,0.512-1.106
		c0,0,5.049,13.704-0.764,19.42c0,0-0.615-0.829-1.182-2.417C18.91,60.239,17,49.367,17,49.367z"/>
	<path fill="#35514A" d="M31.884,23.381c0,0-2.05,1.372,0,5.982c1.963,4.415,4.895,9.467,4.059,14.461c0,0-2.284-7.689-7.225-8.945
		s-5.481-0.787-5.481-0.787s2.534-3.387,2.013-6.22S31.884,23.381,31.884,23.381z"/>
	<ellipse fill="#256754" cx="23.354" cy="43.362" rx="10.827" ry="10.685"/>
	<path fill="#35514A" d="M19.009,37.885c-2.168,0-4.185,0.631-5.879,1.714c-0.46,1.186-0.715,2.472-0.715,3.818
		c0,5.901,4.847,10.685,10.827,10.685c2.168,0,4.185-0.631,5.879-1.714c0.46-1.186,0.715-2.472,0.715-3.818
		C29.836,42.669,24.988,37.885,19.009,37.885z"/>
	<path fill="#54B89E" d="M32.703,31.91c-0.204-0.296-3.848,2.656-4.013,2.806c-2.653,2.424-4.253,5.496-4.754,9.053
		c-0.478,3.394-0.256,6.899-0.253,10.319c0,0.076-0.006,0.002,0,0c0,0,10.014,0.289,11.984-8.077
		C37.372,38.777,32.707,31.915,32.703,31.91z"/>
	<path fill="#35514A" d="M31.939,23.381c0,0-2.05,1.372,0,5.982c0.794,1.787,1.681,3.533,2.426,5.342
		c0.938,2.276,1.687,4.615,1.809,7.091c0.032,0.655,0.003,1.373-0.177,2.008c-0.553-1.795-1.123-3.604-2.092-5.227
		c-0.949-1.589-2.262-2.882-3.87-3.798c-0.938-0.534-1.918-0.995-2.94-1.344c-1.044-0.356-2.09-0.68-3.193-0.745
		c0.074,0.004,0.346-0.392,0.395-0.46c0.155-0.217,0.291-0.447,0.41-0.686c0.331-0.66,0.598-1.384,0.664-2.124
		c0.045-0.502,0.026-1.052-0.066-1.548C24.783,25.04,31.939,23.381,31.939,23.381z"/>
	<path fill="#256754" d="M21.075,23.381c0,0,5.293,7.287,2.827,9.309c0,0,2.279,0.214,9.547-9.961l-7.007-3.354L21.075,23.381z"/>
	<path fill="#256754" d="M30.964,22.903c0,0,13.42,0.147,20.078,14.982c0,0,6.758-14.386,1.589-20.648s-21.667-4.016-21.667-4.016
		V22.903z"/>
	<path fill="#54B89E" d="M30.467,8.193l4.473,5.74l11.038-6.824c0,0-4.147-0.534-7.755-0.098
		C34.614,7.448,30.467,8.193,30.467,8.193z"/>
	<path fill="#35514A" d="M48.085,7.526c-8.59-2.171-17.307,2.722-20.018,11.019c2.854-0.893,5.982-1.035,9.094-0.248
		c8.967,2.267,15.98,11.374,13.713,20.341c-0.095,0.378-0.204,0.749-0.323,1.113c5.37-1.681,8.187-6.029,9.667-11.884
		C62.484,18.9,57.052,9.793,48.085,7.526z"/>
	<circle fill="#256754" cx="25.249" cy="15.111" r="9.691"/>
	<path fill="#54B89E" d="M25.995,18.629c-4.54,0-8.35-3.123-9.401-7.337c-0.66,1.31-1.035,2.789-1.035,4.356
		c0,5.352,4.339,9.691,9.691,9.691s9.691-4.339,9.691-9.691c0-0.812-0.101-1.6-0.289-2.353
		C33.055,16.458,29.78,18.629,25.995,18.629z"/>
	<path fill="#35514A" d="M20.258,7.011c-2.931,1.666-4.909,4.815-4.909,8.427c0,4.935,3.689,9.005,8.46,9.61
		c2.931-1.667,4.909-4.815,4.909-8.427C28.718,11.687,25.029,7.617,20.258,7.011z"/>
</g>
</svg>
