<svg xmlns="http://www.w3.org/2000/svg" width="72.401" height="75.448"><path fill="#35514A" d="M14.724 47.865s-11.48 3.131-12.523 9.691c-.001 0 7.148.136 12.523-9.691z"/><path fill="#54B89E" d="M14.943 47.856l-.274.783c.165-.279.329-.566.492-.863 0 0-11.48 3.131-12.523 9.691 0 0 .841.016 2.163-.359 2.026-5.377 10.142-9.252 10.142-9.252z"/><path fill="#54B89E" d="M16.901 45.095s-.256 22.109-11.563 27.057c0 0-3.593-12.792 11.563-27.057z"/><path fill="#256754" d="M16.815 44.696c-.439.285-.863.572-1.279.859.424-.428.864-.857 1.322-1.288 0 0-.256 22.11-11.563 27.057 0 0-.422-1.505-.366-4.057 8.718-6.162 11.886-22.571 11.886-22.571z"/><path fill="#35514A" d="M17.148 49.593s5.049 13.704-.764 19.42c0 0-5.23-7.048.764-19.42z"/><path fill="#54B89E" d="M17 49.367c-.204.279-.398.556-.587.832.161-.364.331-.733.512-1.106 0 0 5.049 13.704-.764 19.42 0 0-.615-.829-1.182-2.417 3.931-5.857 2.021-16.729 2.021-16.729z"/><path fill="#35514A" d="M31.884 23.381s-2.05 1.372 0 5.982c1.963 4.415 4.895 9.467 4.059 14.461 0 0-2.284-7.689-7.225-8.945l-5.481-.787s2.534-3.387 2.013-6.22l6.634-4.491z"/><ellipse fill="#256754" cx="23.354" cy="43.362" rx="10.827" ry="10.685"/><path fill="#35514A" d="M19.009 37.885c-2.168 0-4.185.631-5.879 1.714-.46 1.186-.715 2.472-.715 3.818 0 5.901 4.847 10.685 10.827 10.685 2.168 0 4.185-.631 5.879-1.714.46-1.186.715-2.472.715-3.818 0-5.901-4.848-10.685-10.827-10.685z"/><path fill="#54B89E" d="M32.703 31.91c-.204-.296-3.848 2.656-4.013 2.806-2.653 2.424-4.253 5.496-4.754 9.053-.478 3.394-.256 6.899-.253 10.319 0 0 10.014.289 11.984-8.077 1.705-7.234-2.96-14.096-2.964-14.101z"/><path fill="#35514A" d="M31.939 23.381s-2.05 1.372 0 5.982c.794 1.787 1.681 3.533 2.426 5.342.938 2.276 1.687 4.615 1.809 7.091.032.655.003 1.373-.177 2.008-.553-1.795-1.123-3.604-2.092-5.227-.949-1.589-2.262-2.882-3.87-3.798-.938-.534-1.918-.995-2.94-1.344-1.044-.356-2.09-.68-3.193-.745.074.004.346-.392.395-.46.155-.217.291-.447.41-.686.331-.66.598-1.384.664-2.124.045-.502.026-1.052-.066-1.548-.522-2.832 6.634-4.491 6.634-4.491z"/><path fill="#256754" d="M21.075 23.381s5.293 7.287 2.827 9.309c0 0 2.279.214 9.547-9.961l-7.007-3.354-5.367 4.006z"/><path fill="#256754" d="M30.964 22.903s13.42.147 20.078 14.982c0 0 6.758-14.386 1.589-20.648l-21.667-4.016v9.682z"/><path fill="#54B89E" d="M30.467 8.193l4.473 5.74 11.038-6.824s-4.147-.534-7.755-.098c-3.609.437-7.756 1.182-7.756 1.182z"/><path fill="#35514A" d="M48.085 7.526c-8.59-2.171-17.307 2.722-20.018 11.019 2.854-.893 5.982-1.035 9.094-.248 8.967 2.267 15.98 11.374 13.713 20.341-.095.378-.204.749-.323 1.113 5.37-1.681 8.187-6.029 9.667-11.884 2.266-8.967-3.166-18.074-12.133-20.341z"/><circle fill="#256754" cx="25.249" cy="15.111" r="9.691"/><path fill="#54B89E" d="M25.995 18.629c-4.54 0-8.35-3.123-9.401-7.337-.66 1.31-1.035 2.789-1.035 4.356 0 5.352 4.339 9.691 9.691 9.691s9.691-4.339 9.691-9.691c0-.812-.101-1.6-.289-2.353-1.597 3.163-4.872 5.334-8.657 5.334z"/><path fill="#35514A" d="M20.258 7.011c-2.931 1.666-4.909 4.815-4.909 8.427 0 4.935 3.689 9.005 8.46 9.61 2.931-1.667 4.909-4.815 4.909-8.427 0-4.934-3.689-9.004-8.46-9.61z"/></svg>