<?xml version="1.0" encoding="utf-8"?>
<!-- Generator: Adobe Illustrator 17.0.0, SVG Export Plug-In . SVG Version: 6.00 Build 0)  -->
<!DOCTYPE svg PUBLIC "-//W3C//DTD SVG 1.1//EN" "http://www.w3.org/Graphics/SVG/1.1/DTD/svg11.dtd">
<svg version="1.1" id="Layer_1" xmlns="http://www.w3.org/2000/svg" xmlns:xlink="http://www.w3.org/1999/xlink" x="0px" y="0px"
	 width="418px" height="469px" viewBox="0 0 418 469" enable-background="new 0 0 418 469" xml:space="preserve">
<image display="none" overflow="visible" width="2478" height="3506" xlink:href="../../../../../../2.jpeg"  transform="matrix(0.24 0 0 0.24 -92 -218)">
</image>
<path fill="#35514A" d="M99.4,295.1c0,0-77,21-84,65C15.4,360.1,63.353,361.016,99.4,295.1z"/>
<path fill="#54B89E" d="M100.874,295.04c-0.597,1.794-1.213,3.536-1.839,5.25c1.109-1.871,2.209-3.798,3.298-5.789c0,0-77,21-84,65
	c0,0,5.641,0.107,14.506-2.41C46.434,321.029,100.874,295.04,100.874,295.04z"/>
<path fill="#54B89E" d="M114.007,276.519c0,0-1.714,148.299-77.561,181.486C36.446,458.005,12.348,372.202,114.007,276.519z"/>
<path fill="#256754" d="M113.425,273.84c-2.946,1.913-5.79,3.837-8.579,5.765c2.846-2.87,5.796-5.751,8.867-8.641
	c0,0-1.714,148.299-77.561,181.486c0,0-2.833-10.094-2.457-27.214C92.177,383.906,113.425,273.84,113.425,273.84z"/>
<path fill="#35514A" d="M115.662,306.687c0,0,33.866,91.92-5.124,130.262C110.537,436.949,75.46,389.674,115.662,306.687z"/>
<path fill="#54B89E" d="M114.672,305.171c-1.367,1.874-2.67,3.731-3.937,5.578c1.08-2.441,2.222-4.914,3.437-7.421
	c0,0,33.866,91.92-5.124,130.262c0,0-4.125-5.562-7.925-16.215C127.479,378.097,114.672,305.171,114.672,305.171z"/>
<path fill="#35514A" d="M214.5,130.875c0,0-13.748,9.206,0,40.125c13.167,29.611,32.833,63.5,27.228,97c0,0-15.323-51.571-48.461-60
	s-36.767-5.28-36.767-5.28S173.5,180,170,161S214.5,130.875,214.5,130.875z"/>
<ellipse fill="#256754" cx="157.29" cy="264.892" rx="72.62" ry="71.667"/>
<path fill="#35514A" d="M128.145,228.16c-14.542,0-28.074,4.235-39.432,11.499c-3.086,7.955-4.793,16.583-4.793,25.608
	c0,39.58,32.513,71.667,72.62,71.667c14.542,0,28.074-4.235,39.432-11.499c3.086-7.955,4.793-16.583,4.793-25.608
	C200.764,260.246,168.251,228.16,128.145,228.16z"/>
<path fill="#54B89E" d="M220,188.083c-1.367-1.984-25.813,17.814-26.914,18.821c-17.792,16.262-28.529,36.865-31.89,60.725
	c-3.207,22.762-1.719,46.276-1.696,69.216c0,0.507-0.04,0.012,0,0c0,0,67.167,1.936,80.383-54.179
	C251.311,234.143,220.023,188.117,220,188.083z"/>
<path fill="#35514A" d="M214.875,130.875c0,0-13.748,9.206,0,40.125c5.329,11.986,11.273,23.696,16.271,35.829
	c6.29,15.268,11.315,30.958,12.131,47.561c0.216,4.392,0.023,9.212-1.187,13.469c-3.711-12.042-7.534-24.177-14.034-35.06
	c-6.365-10.656-15.171-19.331-25.959-25.474c-6.289-3.581-12.866-6.675-19.72-9.012c-7.001-2.387-14.018-4.562-21.415-4.997
	c0.498,0.029,2.321-2.629,2.647-3.085c1.043-1.457,1.95-2.998,2.752-4.6c2.217-4.43,4.012-9.285,4.453-14.246
	c0.299-3.366,0.173-7.057-0.44-10.385C166.875,142,214.875,130.875,214.875,130.875z"/>
<path fill="#256754" d="M142,130.875c0,0,35.5,48.875,18.962,62.441c0,0,15.288,1.434,64.038-66.816L178,104L142,130.875z"/>
<path fill="#256754" d="M208.333,127.667c0,0,90.015,0.986,134.674,100.493c0,0,45.326-96.493,10.659-138.493
	S208.333,62.729,208.333,62.729V127.667z"/>
<path fill="#54B89E" d="M205,29l30,38.5l74.038-45.771c0,0-27.818-3.582-52.019-0.655C232.818,24,205,29,205,29z"/>
<path fill="#35514A" d="M323.171,24.526C265.556,9.962,207.088,42.783,188.902,98.436c19.141-5.993,40.124-6.94,60.995-1.665
	c60.148,15.204,107.183,76.289,91.979,136.437c-0.64,2.533-1.369,5.021-2.169,7.468c36.02-11.278,54.913-40.438,64.841-79.714
	C419.753,100.814,383.319,39.73,323.171,24.526z"/>
<circle fill="#256754" cx="170" cy="75.4" r="65"/>
<path fill="#54B89E" d="M175,99c-30.454,0-56.006-20.947-63.06-49.216C107.51,58.57,105,68.489,105,79c0,35.898,29.102,65,65,65
	s65-29.102,65-65c0-5.445-0.679-10.73-1.94-15.784C222.36,84.436,200.388,99,175,99z"/>
<path fill="#35514A" d="M136.524,21.074C116.867,32.252,103.6,53.37,103.6,77.6c0,33.099,24.746,60.4,56.743,64.46
	c19.657-11.179,32.924-32.297,32.924-56.526C193.267,52.434,168.521,25.133,136.524,21.074z"/>
</svg>
